<svg width="50" height="50" viewBox="0 0 50 50" fill="none" xmlns="http://www.w3.org/2000/svg">
<path d="M25 1C11.745 1 1 11.745 1 25C1 38.255 11.745 49 25 49C38.255 49 49 38.255 49 25C49 11.745 38.255 1 25 1ZM26.6425 30.6875C25.1025 30.57 24.4575 29.8075 23.2525 29.0775C22.59 32.555 21.78 35.89 19.38 37.6325C18.6375 32.3725 20.465 28.4275 21.315 24.235C19.8675 21.7975 21.4875 16.895 24.5425 18.1C28.3 19.59 21.2875 27.1625 25.995 28.11C30.91 29.095 32.9175 19.58 29.87 16.49C25.465 12.0225 17.0525 16.3875 18.0875 22.7825C18.3375 24.345 19.955 24.82 18.7325 26.9775C15.915 26.3525 15.0725 24.13 15.1825 21.1675C15.355 16.3175 19.54 12.92 23.735 12.4525C29.0425 11.8625 34.0225 14.4 34.7125 19.395C35.485 25.03 32.315 31.1275 26.6425 30.6875Z" fill="white"/>
</svg>
