<svg width="243" height="36" viewBox="0 0 243 36" fill="none" xmlns="http://www.w3.org/2000/svg">
<path d="M45.5904 8.64L45.7824 10.872L45.6864 10.68C46.0544 9.928 46.5744 9.336 47.2464 8.904C47.9344 8.472 48.7184 8.256 49.5984 8.256C50.1584 8.256 50.6544 8.344 51.0864 8.52C51.5184 8.696 51.8704 8.952 52.1424 9.288C52.4304 9.608 52.6144 10.008 52.6944 10.488L52.5744 10.56C52.9584 9.84 53.4864 9.28 54.1584 8.88C54.8464 8.464 55.5664 8.256 56.3184 8.256C57.2944 8.256 58.0624 8.536 58.6224 9.096C59.1984 9.64 59.4944 10.352 59.5104 11.232V18.576H57.2784V12.024C57.2624 11.512 57.1344 11.088 56.8944 10.752C56.6704 10.4 56.2704 10.208 55.6944 10.176C55.1184 10.176 54.5984 10.352 54.1344 10.704C53.6864 11.056 53.3344 11.512 53.0784 12.072C52.8224 12.616 52.6864 13.208 52.6704 13.848V18.576H50.4384V12.024C50.4224 11.512 50.2864 11.088 50.0304 10.752C49.7904 10.4 49.3824 10.208 48.8064 10.176C48.2144 10.176 47.6944 10.352 47.2464 10.704C46.7984 11.056 46.4464 11.512 46.1904 12.072C45.9504 12.632 45.8304 13.232 45.8304 13.872V18.576H43.5984V8.64H45.5904ZM68.0111 18.816C66.8751 18.816 65.8991 18.592 65.0831 18.144C64.2671 17.68 63.6351 17.056 63.1871 16.272C62.7551 15.472 62.5391 14.56 62.5391 13.536C62.5391 12.56 62.7871 11.672 63.2831 10.872C63.7791 10.072 64.4431 9.432 65.2751 8.952C66.1071 8.472 67.0351 8.232 68.0591 8.232C69.3711 8.232 70.4591 8.616 71.3231 9.384C72.1871 10.152 72.7711 11.208 73.0751 12.552L64.8911 15.432L64.3631 14.112L71.0831 11.664L70.6031 11.976C70.4111 11.448 70.0911 10.992 69.6431 10.608C69.1951 10.208 68.6111 10.008 67.8911 10.008C67.2831 10.008 66.7391 10.16 66.2591 10.464C65.7791 10.752 65.4031 11.152 65.1311 11.664C64.8591 12.176 64.7231 12.76 64.7231 13.416C64.7231 14.104 64.8671 14.712 65.1551 15.24C65.4431 15.752 65.8351 16.16 66.3311 16.464C66.8431 16.752 67.4191 16.896 68.0591 16.896C68.4911 16.896 68.9071 16.816 69.3071 16.656C69.7231 16.496 70.1071 16.288 70.4591 16.032L71.4911 17.688C70.9951 18.024 70.4351 18.296 69.8111 18.504C69.2031 18.712 68.6031 18.816 68.0111 18.816ZM79.9039 18.816C78.9919 18.816 78.1599 18.6 77.4079 18.168C76.6719 17.72 76.0879 17.096 75.6559 16.296C75.2239 15.48 75.0079 14.544 75.0079 13.488C75.0079 12.384 75.2319 11.44 75.6799 10.656C76.1439 9.872 76.7679 9.272 77.5519 8.856C78.3359 8.44 79.2159 8.232 80.1919 8.232C80.9759 8.232 81.7199 8.4 82.4239 8.736C83.1439 9.072 83.7039 9.536 84.1039 10.128L84.0079 10.92V-9.53674e-07H86.2159V18.576H83.9839V16.104L84.2239 16.728C83.7599 17.336 83.1599 17.84 82.4239 18.24C81.6879 18.624 80.8479 18.816 79.9039 18.816ZM80.5999 16.92C81.1919 16.92 81.7199 16.816 82.1839 16.608C82.6479 16.384 83.0319 16.08 83.3359 15.696C83.6399 15.312 83.8559 14.856 83.9839 14.328V12.456C83.8559 11.976 83.6239 11.56 83.2879 11.208C82.9679 10.84 82.5759 10.552 82.1119 10.344C81.6639 10.12 81.1599 10.008 80.5999 10.008C79.9919 10.008 79.4319 10.16 78.9199 10.464C78.4239 10.752 78.0239 11.152 77.7199 11.664C77.4159 12.176 77.2639 12.768 77.2639 13.44C77.2639 14.096 77.4159 14.688 77.7199 15.216C78.0239 15.728 78.4319 16.144 78.9439 16.464C79.4559 16.768 80.0079 16.92 80.5999 16.92ZM90.0984 8.64H92.3304V18.576H90.0984V8.64ZM89.9304 5.04C89.9304 4.688 90.0664 4.392 90.3384 4.152C90.6264 3.912 90.9384 3.792 91.2744 3.792C91.6104 3.792 91.9064 3.912 92.1624 4.152C92.4344 4.392 92.5704 4.688 92.5704 5.04C92.5704 5.408 92.4344 5.712 92.1624 5.952C91.9064 6.176 91.6104 6.288 91.2744 6.288C90.9384 6.288 90.6264 6.168 90.3384 5.928C90.0664 5.688 89.9304 5.392 89.9304 5.04ZM100.224 18.864L94.7042 8.64H97.3442L101.088 16.536L99.7202 16.488L103.152 8.64H105.648L100.344 18.864H100.224ZM112.425 18.816C111.289 18.816 110.313 18.592 109.497 18.144C108.681 17.68 108.049 17.056 107.601 16.272C107.169 15.472 106.953 14.56 106.953 13.536C106.953 12.56 107.201 11.672 107.697 10.872C108.193 10.072 108.857 9.432 109.689 8.952C110.521 8.472 111.449 8.232 112.473 8.232C113.785 8.232 114.873 8.616 115.737 9.384C116.601 10.152 117.185 11.208 117.489 12.552L109.305 15.432L108.777 14.112L115.497 11.664L115.017 11.976C114.825 11.448 114.505 10.992 114.057 10.608C113.609 10.208 113.025 10.008 112.305 10.008C111.697 10.008 111.153 10.16 110.673 10.464C110.193 10.752 109.817 11.152 109.545 11.664C109.273 12.176 109.137 12.76 109.137 13.416C109.137 14.104 109.281 14.712 109.569 15.24C109.857 15.752 110.249 16.16 110.745 16.464C111.257 16.752 111.833 16.896 112.473 16.896C112.905 16.896 113.321 16.816 113.721 16.656C114.137 16.496 114.521 16.288 114.873 16.032L115.905 17.688C115.409 18.024 114.849 18.296 114.225 18.504C113.617 18.712 113.017 18.816 112.425 18.816ZM122.278 8.64L122.494 11.52L122.374 11.136C122.63 10.528 122.998 10.016 123.478 9.6C123.974 9.168 124.486 8.84 125.014 8.616C125.558 8.376 126.03 8.256 126.43 8.256L126.31 10.464C125.558 10.416 124.894 10.56 124.318 10.896C123.758 11.232 123.31 11.68 122.974 12.24C122.654 12.8 122.494 13.4 122.494 14.04V18.576H120.286V8.64H122.278ZM132.093 18.768C131.389 18.768 130.701 18.648 130.029 18.408C129.373 18.152 128.829 17.776 128.397 17.28L129.333 15.984C129.749 16.384 130.173 16.688 130.605 16.896C131.053 17.088 131.493 17.184 131.925 17.184C132.245 17.184 132.541 17.144 132.813 17.064C133.085 16.984 133.301 16.856 133.461 16.68C133.637 16.488 133.725 16.232 133.725 15.912C133.725 15.56 133.605 15.28 133.365 15.072C133.141 14.864 132.845 14.696 132.477 14.568C132.125 14.44 131.749 14.32 131.349 14.208C130.533 13.936 129.909 13.56 129.477 13.08C129.045 12.6 128.829 12.016 128.829 11.328C128.829 10.8 128.957 10.312 129.213 9.864C129.485 9.4 129.877 9.024 130.389 8.736C130.917 8.448 131.565 8.304 132.333 8.304C133.021 8.304 133.637 8.392 134.181 8.568C134.725 8.728 135.237 9 135.717 9.384L134.829 10.776C134.541 10.472 134.197 10.248 133.797 10.104C133.397 9.96 133.037 9.88 132.717 9.864C132.445 9.848 132.181 9.888 131.925 9.984C131.685 10.08 131.485 10.216 131.325 10.392C131.165 10.568 131.085 10.776 131.085 11.016C131.085 11.352 131.197 11.624 131.421 11.832C131.645 12.04 131.933 12.208 132.285 12.336C132.653 12.448 133.013 12.568 133.365 12.696C133.861 12.84 134.301 13.032 134.685 13.272C135.069 13.512 135.373 13.808 135.597 14.16C135.837 14.512 135.957 14.952 135.957 15.48C135.957 16.072 135.813 16.624 135.525 17.136C135.253 17.632 134.829 18.032 134.253 18.336C133.693 18.624 132.973 18.768 132.093 18.768ZM143.211 18.816C142.283 18.816 141.435 18.616 140.667 18.216C139.915 17.816 139.315 17.232 138.867 16.464C138.435 15.68 138.219 14.728 138.219 13.608C138.219 12.504 138.451 11.552 138.915 10.752C139.379 9.936 139.995 9.312 140.763 8.88C141.547 8.448 142.403 8.232 143.331 8.232C144.259 8.232 145.043 8.448 145.683 8.88C146.323 9.296 146.811 9.792 147.147 10.368L147.003 10.752L147.219 8.64H149.283V18.576H147.051V15.984L147.291 16.56C147.227 16.72 147.083 16.928 146.859 17.184C146.651 17.424 146.363 17.672 145.995 17.928C145.643 18.184 145.235 18.4 144.771 18.576C144.307 18.736 143.787 18.816 143.211 18.816ZM143.811 16.968C144.371 16.968 144.875 16.864 145.323 16.656C145.771 16.448 146.139 16.16 146.427 15.792C146.731 15.408 146.939 14.952 147.051 14.424V12.48C146.923 12 146.699 11.584 146.379 11.232C146.059 10.864 145.675 10.584 145.227 10.392C144.779 10.184 144.283 10.08 143.739 10.08C143.147 10.08 142.603 10.224 142.107 10.512C141.611 10.8 141.211 11.2 140.907 11.712C140.619 12.224 140.475 12.824 140.475 13.512C140.475 14.152 140.627 14.736 140.931 15.264C141.235 15.792 141.643 16.208 142.155 16.512C142.667 16.816 143.219 16.968 143.811 16.968ZM153.145 -9.53674e-07H155.377V18.576H153.145V-9.53674e-07Z" fill="#528AC8"/>
<path d="M159.239 18.576V-9.53674e-07H161.423V10.944L161.375 10.536C161.711 9.88 162.223 9.336 162.911 8.904C163.615 8.472 164.439 8.256 165.383 8.256C166.327 8.256 167.095 8.536 167.687 9.096C168.295 9.64 168.607 10.352 168.623 11.232V18.576H166.367V12.024C166.351 11.48 166.191 11.04 165.887 10.704C165.599 10.352 165.143 10.176 164.519 10.176C163.943 10.176 163.423 10.344 162.959 10.68C162.495 11 162.127 11.44 161.855 12C161.599 12.56 161.471 13.2 161.471 13.92V18.576H159.239ZM171.641 13.512C171.641 12.52 171.873 11.624 172.337 10.824C172.817 10.024 173.473 9.392 174.305 8.928C175.137 8.464 176.081 8.232 177.137 8.232C178.225 8.232 179.177 8.464 179.993 8.928C180.809 9.392 181.441 10.024 181.889 10.824C182.337 11.624 182.561 12.52 182.561 13.512C182.561 14.504 182.337 15.408 181.889 16.224C181.441 17.024 180.801 17.656 179.969 18.12C179.153 18.584 178.201 18.816 177.113 18.816C176.057 18.816 175.113 18.6 174.281 18.168C173.465 17.72 172.817 17.104 172.337 16.32C171.873 15.52 171.641 14.584 171.641 13.512ZM173.873 13.536C173.873 14.176 174.017 14.76 174.305 15.288C174.593 15.8 174.977 16.208 175.457 16.512C175.953 16.816 176.497 16.968 177.089 16.968C177.713 16.968 178.265 16.816 178.745 16.512C179.241 16.208 179.625 15.8 179.897 15.288C180.169 14.76 180.305 14.176 180.305 13.536C180.305 12.896 180.169 12.32 179.897 11.808C179.625 11.28 179.241 10.864 178.745 10.56C178.265 10.24 177.713 10.08 177.089 10.08C176.481 10.08 175.929 10.24 175.433 10.56C174.953 10.88 174.569 11.304 174.281 11.832C174.009 12.344 173.873 12.912 173.873 13.536ZM188.367 18.768C187.663 18.768 186.975 18.648 186.303 18.408C185.647 18.152 185.103 17.776 184.671 17.28L185.607 15.984C186.023 16.384 186.447 16.688 186.879 16.896C187.327 17.088 187.767 17.184 188.199 17.184C188.519 17.184 188.815 17.144 189.087 17.064C189.359 16.984 189.575 16.856 189.735 16.68C189.911 16.488 189.999 16.232 189.999 15.912C189.999 15.56 189.879 15.28 189.639 15.072C189.415 14.864 189.119 14.696 188.751 14.568C188.399 14.44 188.023 14.32 187.623 14.208C186.807 13.936 186.183 13.56 185.751 13.08C185.319 12.6 185.103 12.016 185.103 11.328C185.103 10.8 185.231 10.312 185.487 9.864C185.759 9.4 186.151 9.024 186.663 8.736C187.191 8.448 187.839 8.304 188.607 8.304C189.295 8.304 189.911 8.392 190.455 8.568C190.999 8.728 191.511 9 191.991 9.384L191.103 10.776C190.815 10.472 190.471 10.248 190.071 10.104C189.671 9.96 189.311 9.88 188.991 9.864C188.719 9.848 188.455 9.888 188.199 9.984C187.959 10.08 187.759 10.216 187.599 10.392C187.439 10.568 187.359 10.776 187.359 11.016C187.359 11.352 187.471 11.624 187.695 11.832C187.919 12.04 188.207 12.208 188.559 12.336C188.927 12.448 189.287 12.568 189.639 12.696C190.135 12.84 190.575 13.032 190.959 13.272C191.343 13.512 191.647 13.808 191.871 14.16C192.111 14.512 192.231 14.952 192.231 15.48C192.231 16.072 192.087 16.624 191.799 17.136C191.527 17.632 191.103 18.032 190.527 18.336C189.967 18.624 189.247 18.768 188.367 18.768ZM201.212 18.816C200.46 18.816 199.732 18.64 199.028 18.288C198.34 17.936 197.804 17.464 197.42 16.872L197.564 16.176V23.352H195.356V8.496H197.276L197.588 11.04L197.348 10.344C197.828 9.736 198.436 9.232 199.172 8.832C199.908 8.432 200.732 8.232 201.644 8.232C202.572 8.232 203.404 8.456 204.14 8.904C204.892 9.352 205.484 9.976 205.916 10.776C206.348 11.576 206.564 12.512 206.564 13.584C206.564 14.656 206.332 15.584 205.868 16.368C205.404 17.152 204.764 17.76 203.948 18.192C203.148 18.608 202.236 18.816 201.212 18.816ZM200.78 17.04C201.42 17.04 202.004 16.896 202.532 16.608C203.076 16.304 203.508 15.896 203.828 15.384C204.148 14.856 204.308 14.264 204.308 13.608C204.308 12.936 204.156 12.344 203.852 11.832C203.548 11.304 203.14 10.888 202.628 10.584C202.132 10.28 201.572 10.128 200.948 10.128C200.372 10.128 199.852 10.24 199.388 10.464C198.924 10.688 198.54 11 198.236 11.4C197.932 11.784 197.716 12.232 197.588 12.744V14.4C197.668 14.912 197.86 15.368 198.164 15.768C198.468 16.168 198.844 16.48 199.292 16.704C199.756 16.928 200.252 17.04 200.78 17.04ZM209.583 8.64H211.815V18.576H209.583V8.64ZM209.415 5.04C209.415 4.688 209.551 4.392 209.823 4.152C210.111 3.912 210.423 3.792 210.759 3.792C211.095 3.792 211.391 3.912 211.647 4.152C211.919 4.392 212.055 4.688 212.055 5.04C212.055 5.408 211.919 5.712 211.647 5.952C211.391 6.176 211.095 6.288 210.759 6.288C210.423 6.288 210.111 6.168 209.823 5.928C209.551 5.688 209.415 5.392 209.415 5.04ZM216.637 4.272H218.869V8.688H221.605V10.44H218.869V18.576H216.637V10.44H214.813V8.688H216.637V4.272ZM228.43 18.816C227.502 18.816 226.654 18.616 225.886 18.216C225.134 17.816 224.534 17.232 224.086 16.464C223.654 15.68 223.438 14.728 223.438 13.608C223.438 12.504 223.67 11.552 224.134 10.752C224.598 9.936 225.214 9.312 225.982 8.88C226.766 8.448 227.622 8.232 228.55 8.232C229.478 8.232 230.262 8.448 230.902 8.88C231.542 9.296 232.03 9.792 232.366 10.368L232.222 10.752L232.438 8.64H234.502V18.576H232.27V15.984L232.51 16.56C232.446 16.72 232.302 16.928 232.078 17.184C231.87 17.424 231.582 17.672 231.214 17.928C230.862 18.184 230.454 18.4 229.99 18.576C229.526 18.736 229.006 18.816 228.43 18.816ZM229.03 16.968C229.59 16.968 230.094 16.864 230.542 16.656C230.99 16.448 231.358 16.16 231.646 15.792C231.95 15.408 232.158 14.952 232.27 14.424V12.48C232.142 12 231.918 11.584 231.598 11.232C231.278 10.864 230.894 10.584 230.446 10.392C229.998 10.184 229.502 10.08 228.958 10.08C228.366 10.08 227.822 10.224 227.326 10.512C226.83 10.8 226.43 11.2 226.126 11.712C225.838 12.224 225.694 12.824 225.694 13.512C225.694 14.152 225.846 14.736 226.15 15.264C226.454 15.792 226.862 16.208 227.374 16.512C227.886 16.816 228.438 16.968 229.03 16.968ZM238.364 -9.53674e-07H240.596V18.576H238.364V-9.53674e-07Z" fill="#7CC7B9"/>
<path d="M94.8974 32.576V24.59H94.9084L98.7584 30.057L98.5274 30.024L102.366 24.59H102.377V32.576H101.849V25.833L101.893 26.097L98.6374 30.684H98.6154L95.3374 26.097L95.4254 25.855V32.576H94.8974ZM104.184 30.398C104.184 29.98 104.283 29.5987 104.481 29.254C104.687 28.9093 104.962 28.638 105.306 28.44C105.658 28.2347 106.051 28.132 106.483 28.132C106.923 28.132 107.316 28.2347 107.66 28.44C108.005 28.638 108.276 28.9093 108.474 29.254C108.672 29.5987 108.771 29.98 108.771 30.398C108.771 30.816 108.672 31.1973 108.474 31.542C108.276 31.8867 108.001 32.1617 107.649 32.367C107.305 32.565 106.916 32.664 106.483 32.664C106.043 32.664 105.651 32.5687 105.306 32.378C104.962 32.18 104.687 31.9123 104.481 31.575C104.283 31.2303 104.184 30.838 104.184 30.398ZM104.701 30.409C104.701 30.7463 104.778 31.0543 104.932 31.333C105.094 31.6043 105.306 31.8207 105.57 31.982C105.842 32.1433 106.142 32.224 106.472 32.224C106.802 32.224 107.099 32.1433 107.363 31.982C107.635 31.8207 107.847 31.6043 108.001 31.333C108.163 31.0543 108.243 30.7463 108.243 30.409C108.243 30.0717 108.163 29.7673 108.001 29.496C107.847 29.2173 107.635 28.9973 107.363 28.836C107.099 28.6673 106.802 28.583 106.472 28.583C106.135 28.583 105.831 28.671 105.559 28.847C105.295 29.0157 105.086 29.2393 104.932 29.518C104.778 29.7967 104.701 30.0937 104.701 30.409ZM110.757 28.275L110.812 29.595L110.746 29.43C110.842 29.166 110.992 28.9387 111.197 28.748C111.403 28.5573 111.63 28.4107 111.879 28.308C112.136 28.2053 112.382 28.154 112.616 28.154L112.594 28.66C112.264 28.66 111.964 28.7333 111.692 28.88C111.428 29.0267 111.216 29.2247 111.054 29.474C110.9 29.716 110.823 29.991 110.823 30.299V32.576H110.306V28.275H110.757ZM115.764 32.664C115.317 32.664 114.921 32.565 114.576 32.367C114.231 32.169 113.96 31.9013 113.762 31.564C113.571 31.2193 113.476 30.8343 113.476 30.409C113.476 29.991 113.579 29.6097 113.784 29.265C113.989 28.9203 114.264 28.6453 114.609 28.44C114.961 28.2347 115.35 28.132 115.775 28.132C116.288 28.132 116.717 28.2823 117.062 28.583C117.414 28.8837 117.667 29.276 117.821 29.76L114.059 31.212L113.905 30.838L117.348 29.496L117.238 29.65C117.113 29.3567 116.923 29.1037 116.666 28.891C116.417 28.6783 116.109 28.572 115.742 28.572C115.412 28.572 115.115 28.6527 114.851 28.814C114.587 28.9753 114.374 29.1917 114.213 29.463C114.059 29.7343 113.982 30.0423 113.982 30.387C113.982 30.7097 114.055 31.0103 114.202 31.289C114.356 31.5677 114.569 31.7913 114.84 31.96C115.111 32.1287 115.423 32.213 115.775 32.213C116.01 32.213 116.233 32.169 116.446 32.081C116.666 31.993 116.86 31.8793 117.029 31.74L117.293 32.114C117.088 32.2753 116.849 32.4073 116.578 32.51C116.314 32.6127 116.043 32.664 115.764 32.664ZM123.057 26.383H123.585V28.33H124.916V28.748H123.585V32.576H123.057V28.748H122.144V28.33H123.057V26.383ZM126.205 32.576V24.216H126.711V29.419L126.678 29.232C126.824 28.9313 127.059 28.6783 127.382 28.473C127.712 28.2603 128.089 28.154 128.515 28.154C128.918 28.154 129.244 28.275 129.494 28.517C129.743 28.7517 129.871 29.0597 129.879 29.441V32.576H129.351V29.584C129.343 29.3053 129.255 29.0743 129.087 28.891C128.918 28.7077 128.672 28.6123 128.35 28.605C128.064 28.605 127.796 28.6783 127.547 28.825C127.297 28.9717 127.096 29.1697 126.942 29.419C126.795 29.6683 126.722 29.9507 126.722 30.266V32.576H126.205ZM133.616 32.664C133.205 32.664 132.831 32.5723 132.494 32.389C132.164 32.1983 131.9 31.9343 131.702 31.597C131.511 31.2597 131.416 30.8673 131.416 30.42C131.416 29.9433 131.518 29.5363 131.724 29.199C131.929 28.8543 132.208 28.594 132.56 28.418C132.912 28.2347 133.311 28.143 133.759 28.143C134.14 28.143 134.499 28.2567 134.837 28.484C135.181 28.7113 135.427 28.9973 135.574 29.342L135.497 29.496L135.563 28.275H136.025V32.576H135.508V31.245L135.618 31.443C135.566 31.5897 135.478 31.7363 135.354 31.883C135.229 32.0223 135.075 32.1543 134.892 32.279C134.716 32.3963 134.518 32.4917 134.298 32.565C134.085 32.631 133.858 32.664 133.616 32.664ZM133.726 32.224C134.048 32.224 134.338 32.158 134.595 32.026C134.859 31.8867 135.071 31.696 135.233 31.454C135.394 31.212 135.486 30.9333 135.508 30.618V30.002C135.449 29.7307 135.332 29.4887 135.156 29.276C134.987 29.0633 134.778 28.8947 134.529 28.77C134.279 28.6453 134.008 28.583 133.715 28.583C133.392 28.583 133.095 28.66 132.824 28.814C132.552 28.9607 132.336 29.1697 132.175 29.441C132.013 29.7123 131.933 30.0313 131.933 30.398C131.933 30.7353 132.013 31.0433 132.175 31.322C132.336 31.5933 132.552 31.8133 132.824 31.982C133.102 32.1433 133.403 32.224 133.726 32.224ZM138.429 28.275L138.484 29.628L138.418 29.364C138.543 28.99 138.777 28.6967 139.122 28.484C139.474 28.264 139.863 28.154 140.288 28.154C140.691 28.154 141.018 28.275 141.267 28.517C141.516 28.7517 141.645 29.0597 141.652 29.441V32.576H141.124V29.584C141.117 29.3053 141.029 29.0743 140.86 28.891C140.691 28.7077 140.446 28.6123 140.123 28.605C139.837 28.605 139.569 28.6747 139.32 28.814C139.071 28.9533 138.869 29.1477 138.715 29.397C138.568 29.6463 138.495 29.936 138.495 30.266V32.576H137.978V28.275H138.429ZM146.793 34.644L146.463 34.325C146.654 34.1343 146.804 33.896 146.914 33.61C147.031 33.324 147.09 33.0013 147.09 32.642V28.275H147.618V32.631C147.618 33.093 147.548 33.489 147.409 33.819C147.277 34.1563 147.072 34.4313 146.793 34.644ZM146.98 26.691C146.98 26.5883 147.02 26.504 147.101 26.438C147.182 26.3647 147.27 26.328 147.365 26.328C147.468 26.328 147.556 26.3647 147.629 26.438C147.702 26.504 147.739 26.5883 147.739 26.691C147.739 26.801 147.702 26.8927 147.629 26.966C147.556 27.032 147.468 27.065 147.365 27.065C147.27 27.065 147.182 27.0283 147.101 26.955C147.02 26.8817 146.98 26.7937 146.98 26.691ZM150.793 32.697C150.39 32.697 150.067 32.5797 149.825 32.345C149.583 32.103 149.455 31.7913 149.44 31.41V28.275H149.957V31.256C149.972 31.5347 150.06 31.7657 150.221 31.949C150.39 32.1323 150.639 32.2313 150.969 32.246C151.248 32.246 151.508 32.1727 151.75 32.026C151.992 31.8793 152.186 31.6813 152.333 31.432C152.487 31.1753 152.564 30.8857 152.564 30.563V28.275H153.081V32.576H152.619L152.564 31.223L152.641 31.52C152.568 31.74 152.436 31.9417 152.245 32.125C152.062 32.301 151.842 32.4403 151.585 32.543C151.336 32.6457 151.072 32.697 150.793 32.697ZM156.049 32.664C155.799 32.664 155.539 32.62 155.268 32.532C154.996 32.4367 154.776 32.2863 154.608 32.081L154.85 31.74C154.996 31.894 155.169 32.0187 155.367 32.114C155.572 32.202 155.788 32.246 156.016 32.246C156.184 32.246 156.342 32.224 156.489 32.18C156.643 32.1287 156.767 32.0443 156.863 31.927C156.958 31.8097 157.006 31.652 157.006 31.454C157.006 31.2487 156.947 31.091 156.83 30.981C156.72 30.871 156.577 30.783 156.401 30.717C156.232 30.6437 156.052 30.5777 155.862 30.519C155.546 30.4163 155.286 30.277 155.081 30.101C154.883 29.925 154.784 29.6757 154.784 29.353C154.784 29.1183 154.839 28.913 154.949 28.737C155.066 28.561 155.224 28.4253 155.422 28.33C155.62 28.2273 155.843 28.176 156.093 28.176C156.32 28.176 156.544 28.2127 156.764 28.286C156.991 28.3593 157.196 28.484 157.38 28.66L157.149 29.023C157.031 28.8617 156.874 28.7517 156.676 28.693C156.485 28.6343 156.316 28.6013 156.17 28.594C156.045 28.594 155.913 28.6197 155.774 28.671C155.642 28.7223 155.528 28.7993 155.433 28.902C155.345 28.9973 155.301 29.1257 155.301 29.287C155.301 29.4557 155.348 29.595 155.444 29.705C155.539 29.8077 155.66 29.892 155.807 29.958C155.961 30.024 156.118 30.0863 156.28 30.145C156.492 30.211 156.69 30.2917 156.874 30.387C157.064 30.475 157.218 30.596 157.336 30.75C157.46 30.8967 157.523 31.0947 157.523 31.344C157.523 31.5933 157.468 31.8207 157.358 32.026C157.248 32.224 157.083 32.3817 156.863 32.499C156.65 32.609 156.379 32.664 156.049 32.664ZM159.516 26.383H160.044V28.33H161.375V28.748H160.044V32.576H159.516V28.748H158.603V28.33H159.516V26.383ZM166.466 26.383H166.994V28.33H168.325V28.748H166.994V32.576H166.466V28.748H165.553V28.33H166.466V26.383ZM170.065 28.275L170.12 29.595L170.054 29.43C170.149 29.166 170.3 28.9387 170.505 28.748C170.71 28.5573 170.938 28.4107 171.187 28.308C171.444 28.2053 171.689 28.154 171.924 28.154L171.902 28.66C171.572 28.66 171.271 28.7333 171 28.88C170.736 29.0267 170.523 29.2247 170.362 29.474C170.208 29.716 170.131 29.991 170.131 30.299V32.576H169.614V28.275H170.065ZM175.072 32.664C174.624 32.664 174.228 32.565 173.884 32.367C173.539 32.169 173.268 31.9013 173.07 31.564C172.879 31.2193 172.784 30.8343 172.784 30.409C172.784 29.991 172.886 29.6097 173.092 29.265C173.297 28.9203 173.572 28.6453 173.917 28.44C174.269 28.2347 174.657 28.132 175.083 28.132C175.596 28.132 176.025 28.2823 176.37 28.583C176.722 28.8837 176.975 29.276 177.129 29.76L173.367 31.212L173.213 30.838L176.656 29.496L176.546 29.65C176.421 29.3567 176.23 29.1037 175.974 28.891C175.724 28.6783 175.416 28.572 175.05 28.572C174.72 28.572 174.423 28.6527 174.159 28.814C173.895 28.9753 173.682 29.1917 173.521 29.463C173.367 29.7343 173.29 30.0423 173.29 30.387C173.29 30.7097 173.363 31.0103 173.51 31.289C173.664 31.5677 173.876 31.7913 174.148 31.96C174.419 32.1287 174.731 32.213 175.083 32.213C175.317 32.213 175.541 32.169 175.754 32.081C175.974 31.993 176.168 31.8793 176.337 31.74L176.601 32.114C176.395 32.2753 176.157 32.4073 175.886 32.51C175.622 32.6127 175.35 32.664 175.072 32.664ZM180.344 32.664C179.933 32.664 179.559 32.5723 179.222 32.389C178.892 32.1983 178.628 31.9343 178.43 31.597C178.239 31.2597 178.144 30.8673 178.144 30.42C178.144 29.9433 178.247 29.5363 178.452 29.199C178.657 28.8543 178.936 28.594 179.288 28.418C179.64 28.2347 180.04 28.143 180.487 28.143C180.868 28.143 181.228 28.2567 181.565 28.484C181.91 28.7113 182.155 28.9973 182.302 29.342L182.225 29.496L182.291 28.275H182.753V32.576H182.236V31.245L182.346 31.443C182.295 31.5897 182.207 31.7363 182.082 31.883C181.957 32.0223 181.803 32.1543 181.62 32.279C181.444 32.3963 181.246 32.4917 181.026 32.565C180.813 32.631 180.586 32.664 180.344 32.664ZM180.454 32.224C180.777 32.224 181.066 32.158 181.323 32.026C181.587 31.8867 181.8 31.696 181.961 31.454C182.122 31.212 182.214 30.9333 182.236 30.618V30.002C182.177 29.7307 182.06 29.4887 181.884 29.276C181.715 29.0633 181.506 28.8947 181.257 28.77C181.008 28.6453 180.736 28.583 180.443 28.583C180.12 28.583 179.823 28.66 179.552 28.814C179.281 28.9607 179.064 29.1697 178.903 29.441C178.742 29.7123 178.661 30.0313 178.661 30.398C178.661 30.7353 178.742 31.0433 178.903 31.322C179.064 31.5933 179.281 31.8133 179.552 31.982C179.831 32.1433 180.131 32.224 180.454 32.224ZM185.136 26.383H185.664V28.33H186.995V28.748H185.664V32.576H185.136V28.748H184.223V28.33H185.136V26.383ZM188.284 28.275H188.801V32.576H188.284V28.275ZM188.174 26.691C188.174 26.5883 188.214 26.504 188.295 26.438C188.375 26.3647 188.463 26.328 188.559 26.328C188.661 26.328 188.749 26.3647 188.823 26.438C188.896 26.504 188.933 26.5883 188.933 26.691C188.933 26.801 188.896 26.8927 188.823 26.966C188.749 27.032 188.661 27.065 188.559 27.065C188.463 27.065 188.375 27.0283 188.295 26.955C188.214 26.8817 188.174 26.7937 188.174 26.691ZM191.206 28.275L191.261 29.628L191.195 29.364C191.319 28.99 191.554 28.6967 191.899 28.484C192.251 28.264 192.639 28.154 193.065 28.154C193.468 28.154 193.794 28.275 194.044 28.517C194.293 28.7517 194.421 29.0597 194.429 29.441V32.576H193.901V29.584C193.893 29.3053 193.805 29.0743 193.637 28.891C193.468 28.7077 193.222 28.6123 192.9 28.605C192.614 28.605 192.346 28.6747 192.097 28.814C191.847 28.9533 191.646 29.1477 191.492 29.397C191.345 29.6463 191.272 29.936 191.272 30.266V32.576H190.755V28.275H191.206ZM198.297 34.677C198.055 34.677 197.824 34.6477 197.604 34.589C197.384 34.5377 197.168 34.446 196.955 34.314C196.743 34.182 196.523 34.0097 196.295 33.797L196.603 33.445C196.919 33.7457 197.212 33.9473 197.483 34.05C197.755 34.16 198.019 34.215 198.275 34.215C198.723 34.215 199.078 34.1417 199.342 33.995C199.606 33.8557 199.797 33.665 199.914 33.423C200.032 33.1883 200.094 32.9243 200.101 32.631L200.112 31.234L200.233 31.366C200.087 31.7473 199.823 32.059 199.441 32.301C199.067 32.543 198.642 32.664 198.165 32.664C197.762 32.664 197.392 32.565 197.054 32.367C196.724 32.1617 196.46 31.8903 196.262 31.553C196.064 31.2083 195.965 30.827 195.965 30.409C195.965 29.9617 196.068 29.5693 196.273 29.232C196.479 28.8947 196.757 28.6307 197.109 28.44C197.461 28.242 197.85 28.143 198.275 28.143C198.671 28.143 199.045 28.2457 199.397 28.451C199.757 28.6563 200.017 28.9277 200.178 29.265L200.112 29.507L200.167 28.275H200.629V32.642C200.629 32.994 200.549 33.324 200.387 33.632C200.233 33.9473 199.984 34.2003 199.639 34.391C199.302 34.5817 198.855 34.677 198.297 34.677ZM196.482 30.398C196.482 30.7353 196.563 31.0433 196.724 31.322C196.886 31.5933 197.102 31.8133 197.373 31.982C197.652 32.1433 197.96 32.224 198.297 32.224C198.62 32.224 198.913 32.1543 199.177 32.015C199.441 31.8683 199.658 31.674 199.826 31.432C199.995 31.19 200.09 30.9297 200.112 30.651V30.013C200.054 29.7343 199.936 29.4887 199.76 29.276C199.592 29.0633 199.379 28.8947 199.122 28.77C198.873 28.6453 198.598 28.583 198.297 28.583C197.96 28.583 197.652 28.66 197.373 28.814C197.102 28.968 196.886 29.1807 196.724 29.452C196.563 29.7233 196.482 30.0387 196.482 30.398ZM208.341 32.664C207.931 32.664 207.546 32.5577 207.186 32.345C206.827 32.125 206.563 31.8427 206.394 31.498L206.482 31.311V34.644H205.965V28.242H206.427L206.482 29.65L206.383 29.331C206.574 28.9863 206.853 28.704 207.219 28.484C207.586 28.2567 207.986 28.143 208.418 28.143C208.829 28.143 209.199 28.242 209.529 28.44C209.859 28.638 210.12 28.9093 210.31 29.254C210.508 29.5913 210.607 29.98 210.607 30.42C210.607 30.8527 210.505 31.2413 210.299 31.586C210.101 31.9233 209.83 32.1873 209.485 32.378C209.148 32.5687 208.767 32.664 208.341 32.664ZM208.253 32.235C208.591 32.235 208.895 32.1543 209.166 31.993C209.445 31.8317 209.665 31.6153 209.826 31.344C209.995 31.0653 210.079 30.7573 210.079 30.42C210.079 30.0753 209.999 29.7673 209.837 29.496C209.676 29.2173 209.46 28.9973 209.188 28.836C208.924 28.6747 208.624 28.594 208.286 28.594C207.964 28.594 207.67 28.6673 207.406 28.814C207.142 28.9607 206.93 29.1587 206.768 29.408C206.607 29.6573 206.512 29.9397 206.482 30.255V30.607C206.504 30.9077 206.596 31.1827 206.757 31.432C206.926 31.6813 207.139 31.8793 207.395 32.026C207.659 32.1653 207.945 32.235 208.253 32.235ZM213.924 32.664C213.514 32.664 213.14 32.5723 212.802 32.389C212.472 32.1983 212.208 31.9343 212.01 31.597C211.82 31.2597 211.724 30.8673 211.724 30.42C211.724 29.9433 211.827 29.5363 212.032 29.199C212.238 28.8543 212.516 28.594 212.868 28.418C213.22 28.2347 213.62 28.143 214.067 28.143C214.449 28.143 214.808 28.2567 215.145 28.484C215.49 28.7113 215.736 28.9973 215.882 29.342L215.805 29.496L215.871 28.275H216.333V32.576H215.816V31.245L215.926 31.443C215.875 31.5897 215.787 31.7363 215.662 31.883C215.538 32.0223 215.384 32.1543 215.2 32.279C215.024 32.3963 214.826 32.4917 214.606 32.565C214.394 32.631 214.166 32.664 213.924 32.664ZM214.034 32.224C214.357 32.224 214.647 32.158 214.903 32.026C215.167 31.8867 215.38 31.696 215.541 31.454C215.703 31.212 215.794 30.9333 215.816 30.618V30.002C215.758 29.7307 215.64 29.4887 215.464 29.276C215.296 29.0633 215.087 28.8947 214.837 28.77C214.588 28.6453 214.317 28.583 214.023 28.583C213.701 28.583 213.404 28.66 213.132 28.814C212.861 28.9607 212.645 29.1697 212.483 29.441C212.322 29.7123 212.241 30.0313 212.241 30.398C212.241 30.7353 212.322 31.0433 212.483 31.322C212.645 31.5933 212.861 31.8133 213.132 31.982C213.411 32.1433 213.712 32.224 214.034 32.224ZM218.716 26.383H219.244V28.33H220.575V28.748H219.244V32.576H218.716V28.748H217.803V28.33H218.716V26.383ZM221.864 28.275H222.381V32.576H221.864V28.275ZM221.754 26.691C221.754 26.5883 221.794 26.504 221.875 26.438C221.956 26.3647 222.044 26.328 222.139 26.328C222.242 26.328 222.33 26.3647 222.403 26.438C222.476 26.504 222.513 26.5883 222.513 26.691C222.513 26.801 222.476 26.8927 222.403 26.966C222.33 27.032 222.242 27.065 222.139 27.065C222.044 27.065 221.956 27.0283 221.875 26.955C221.794 26.8817 221.754 26.7937 221.754 26.691ZM226.205 32.664C225.757 32.664 225.361 32.565 225.017 32.367C224.672 32.169 224.401 31.9013 224.203 31.564C224.012 31.2193 223.917 30.8343 223.917 30.409C223.917 29.991 224.019 29.6097 224.225 29.265C224.43 28.9203 224.705 28.6453 225.05 28.44C225.402 28.2347 225.79 28.132 226.216 28.132C226.729 28.132 227.158 28.2823 227.503 28.583C227.855 28.8837 228.108 29.276 228.262 29.76L224.5 31.212L224.346 30.838L227.789 29.496L227.679 29.65C227.554 29.3567 227.363 29.1037 227.107 28.891C226.857 28.6783 226.549 28.572 226.183 28.572C225.853 28.572 225.556 28.6527 225.292 28.814C225.028 28.9753 224.815 29.1917 224.654 29.463C224.5 29.7343 224.423 30.0423 224.423 30.387C224.423 30.7097 224.496 31.0103 224.643 31.289C224.797 31.5677 225.009 31.7913 225.281 31.96C225.552 32.1287 225.864 32.213 226.216 32.213C226.45 32.213 226.674 32.169 226.887 32.081C227.107 31.993 227.301 31.8793 227.47 31.74L227.734 32.114C227.528 32.2753 227.29 32.4073 227.019 32.51C226.755 32.6127 226.483 32.664 226.205 32.664ZM230.146 28.275L230.201 29.628L230.135 29.364C230.26 28.99 230.494 28.6967 230.839 28.484C231.191 28.264 231.58 28.154 232.005 28.154C232.408 28.154 232.735 28.275 232.984 28.517C233.233 28.7517 233.362 29.0597 233.369 29.441V32.576H232.841V29.584C232.834 29.3053 232.746 29.0743 232.577 28.891C232.408 28.7077 232.163 28.6123 231.84 28.605C231.554 28.605 231.286 28.6747 231.037 28.814C230.788 28.9533 230.586 29.1477 230.432 29.397C230.285 29.6463 230.212 29.936 230.212 30.266V32.576H229.695V28.275H230.146ZM235.753 26.383H236.281V28.33H237.612V28.748H236.281V32.576H235.753V28.748H234.84V28.33H235.753V26.383ZM239.913 32.664C239.664 32.664 239.403 32.62 239.132 32.532C238.861 32.4367 238.641 32.2863 238.472 32.081L238.714 31.74C238.861 31.894 239.033 32.0187 239.231 32.114C239.436 32.202 239.653 32.246 239.88 32.246C240.049 32.246 240.206 32.224 240.353 32.18C240.507 32.1287 240.632 32.0443 240.727 31.927C240.822 31.8097 240.87 31.652 240.87 31.454C240.87 31.2487 240.811 31.091 240.694 30.981C240.584 30.871 240.441 30.783 240.265 30.717C240.096 30.6437 239.917 30.5777 239.726 30.519C239.411 30.4163 239.15 30.277 238.945 30.101C238.747 29.925 238.648 29.6757 238.648 29.353C238.648 29.1183 238.703 28.913 238.813 28.737C238.93 28.561 239.088 28.4253 239.286 28.33C239.484 28.2273 239.708 28.176 239.957 28.176C240.184 28.176 240.408 28.2127 240.628 28.286C240.855 28.3593 241.061 28.484 241.244 28.66L241.013 29.023C240.896 28.8617 240.738 28.7517 240.54 28.693C240.349 28.6343 240.181 28.6013 240.034 28.594C239.909 28.594 239.777 28.6197 239.638 28.671C239.506 28.7223 239.392 28.7993 239.297 28.902C239.209 28.9973 239.165 29.1257 239.165 29.287C239.165 29.4557 239.213 29.595 239.308 29.705C239.403 29.8077 239.524 29.892 239.671 29.958C239.825 30.024 239.983 30.0863 240.144 30.145C240.357 30.211 240.555 30.2917 240.738 30.387C240.929 30.475 241.083 30.596 241.2 30.75C241.325 30.8967 241.387 31.0947 241.387 31.344C241.387 31.5933 241.332 31.8207 241.222 32.026C241.112 32.224 240.947 32.3817 240.727 32.499C240.514 32.609 240.243 32.664 239.913 32.664Z" fill="black"/>
<path d="M23.5546 8.23389C23.3611 7.13506 23.2087 6.03581 23.0675 4.93655L23.016 4.52444L22.9907 4.31817L22.9845 4.26682C22.9824 4.24983 22.9807 4.23078 22.9774 4.2196L22.9608 4.14214C22.9172 3.93754 22.8387 3.74867 22.7324 3.58341C22.6249 3.41856 22.4928 3.27525 22.3404 3.16508C22.188 3.05532 22.0223 2.97373 21.8517 2.92816C21.681 2.88219 21.5091 2.86687 21.3413 2.88302L20.5702 2.95343L19.7435 3.0255C19.4678 3.04911 19.1925 3.0723 18.9168 3.09343C17.8143 3.18206 16.7122 3.2591 15.6098 3.32703C15.0587 3.36223 14.5073 3.39247 13.9563 3.42312L13.7495 3.43389L13.6461 3.43927L13.6203 3.44051L13.6079 3.44134L13.6029 3.44258L13.5838 3.44714C13.5709 3.45004 13.5585 3.45211 13.5456 3.45377C13.5327 3.45542 13.5199 3.45584 13.5082 3.46164C13.4846 3.47075 13.4601 3.47448 13.4364 3.48235C13.343 3.513 13.2607 3.56643 13.1877 3.62648C13.1146 3.68737 13.0535 3.76151 13.0091 3.84145C12.9651 3.9218 12.9356 4.00505 12.9219 4.08954C12.9132 4.13138 12.914 4.17487 12.9128 4.21753C12.9144 4.22871 12.9153 4.23948 12.9157 4.25025L12.9161 4.2664V4.27468V4.27883L12.9165 4.29001L12.9244 4.49627L12.951 5.32092C12.9871 6.42058 13.012 7.52066 13.0328 8.62033C13.039 8.89535 13.0415 9.17037 13.0456 9.44539V9.45823L13.0452 9.48018L13.044 9.52491L13.0411 9.61438L13.0328 9.79289C13.0311 9.85253 13.0228 9.91176 13.0149 9.97099C13.007 10.0302 12.9983 10.0899 12.9896 10.1491C12.9746 10.268 12.9418 10.3843 12.9136 10.5011C12.8978 10.5591 12.8858 10.6184 12.865 10.6747C12.8459 10.7314 12.826 10.7886 12.8056 10.8449C12.4759 11.7507 11.8066 12.5158 10.9566 12.9697C10.849 13.024 10.7411 13.0778 10.6302 13.1254C10.5177 13.1693 10.4043 13.2108 10.2905 13.2501C10.1747 13.2832 10.0576 13.3139 9.94047 13.3421C9.82296 13.3677 9.70337 13.3839 9.58419 13.4017C9.52481 13.4116 9.46502 13.4154 9.40522 13.4191L9.22584 13.4286C9.08383 13.4357 9.04396 13.4323 8.96922 13.4332L8.55564 13.434L6.90132 13.4257C6.34988 13.4191 5.79844 13.4154 5.24699 13.4063L3.71351 13.3793C3.6317 13.3789 3.55281 13.3918 3.47516 13.4199C3.39751 13.4477 3.3211 13.4895 3.25383 13.5462C3.18615 13.6026 3.12885 13.6726 3.084 13.7496C3.0404 13.8275 3.0105 13.9132 2.9968 14.0089L2.99306 14.0267L2.99099 14.0358C2.99057 14.0375 2.99016 14.0383 2.98974 14.0412L2.98933 14.054L2.98559 14.1572L2.97728 14.3634L2.96026 14.776L2.92579 15.601C2.89963 16.1511 2.87555 16.7011 2.84482 17.2511C2.817 17.8012 2.78337 18.3512 2.75098 18.9017C2.71527 19.4517 2.68122 20.0018 2.64094 20.5522C2.62184 20.8272 2.6019 21.1022 2.58031 21.3773L2.52799 22.0764C2.52384 22.2342 2.54958 22.3953 2.60647 22.5519C2.66336 22.7085 2.75264 22.8584 2.86807 22.9922C2.9831 23.1264 3.12677 23.2411 3.28955 23.3297L3.351 23.3641C3.37218 23.3736 3.39419 23.3815 3.41578 23.391L3.48139 23.4192C3.50298 23.4304 3.52665 23.4333 3.54907 23.4412L3.618 23.4623C3.62963 23.4656 3.64125 23.4702 3.65288 23.4731L3.68859 23.4797L3.76084 23.4942L3.79739 23.502C3.80403 23.5033 3.80777 23.5049 3.81732 23.5058L3.84306 23.5087C4.3945 23.5654 4.94636 23.6267 5.4978 23.6913C6.6011 23.8226 7.70439 23.9651 8.80811 24.149C7.70647 24.3433 6.60442 24.4957 5.50237 24.6373C4.95134 24.7069 4.40032 24.7732 3.84929 24.8353L3.82355 24.8382C3.81566 24.8395 3.80237 24.8395 3.79199 24.8403L3.72513 24.8432L3.5906 24.8482L3.52291 24.8498C3.50049 24.8498 3.47806 24.8477 3.45523 24.8465L3.31986 24.8374C3.2746 24.8332 3.22892 24.8328 3.18407 24.8245L3.04912 24.8022C3.00427 24.7943 2.9586 24.7868 2.91375 24.7773L2.78046 24.7417C2.42501 24.6448 2.08451 24.4779 1.78139 24.2546C1.47785 24.031 1.21417 23.7472 1.00613 23.4213C0.797679 23.0953 0.653175 22.723 0.578016 22.3361L0.562653 22.2636C0.55767 22.2392 0.555593 22.2148 0.552271 22.1907L0.534831 22.0437L0.526942 21.97L0.520713 21.9033L0.511993 21.8002L0.476698 21.388C0.452614 21.113 0.43019 20.8384 0.408598 20.5634C0.363337 20.0138 0.323889 19.4637 0.283195 18.9141C0.245823 18.3645 0.20679 17.8144 0.173986 17.2648C0.138275 16.7152 0.108793 16.1651 0.0776502 15.6155L0.0352955 14.7909L0.0145335 14.3783L0.00456766 14.1721L0 14.0689L0.000415242 14.054V14.0333L0.000830483 13.9907L0.00207621 13.9053C0.00581338 13.4518 0.0934294 12.9912 0.262848 12.5613C0.431436 12.131 0.685149 11.7354 0.998241 11.3945C1.31216 11.0541 1.6892 10.7687 2.10943 10.5604C2.52924 10.352 2.99099 10.2212 3.45855 10.176L3.6342 10.1636C3.69025 10.1599 3.76209 10.1561 3.78576 10.1557L3.99255 10.1491L4.40613 10.1379L5.23288 10.1164C5.78432 10.1023 6.33534 10.0936 6.88678 10.0816L8.54069 10.058L8.95427 10.0547C9.01697 10.0538 9.11539 10.0542 9.11082 10.0505C9.11995 10.0493 9.12867 10.0489 9.13781 10.0489C9.14694 10.0493 9.15608 10.0501 9.16438 10.0464C9.18099 10.041 9.19885 10.0418 9.21587 10.0377C9.23207 10.031 9.24826 10.0269 9.2657 10.0244C9.28107 10.0157 9.29685 10.0095 9.31346 10.0058C9.32882 9.99791 9.34294 9.98797 9.35996 9.983C9.42142 9.95069 9.47831 9.90596 9.52564 9.85295C9.5734 9.79993 9.60911 9.73863 9.63527 9.67526C9.63818 9.66739 9.64191 9.65952 9.64606 9.65165C9.65146 9.6442 9.6498 9.63467 9.65271 9.6268C9.6552 9.60982 9.66724 9.59491 9.666 9.57627C9.66683 9.56757 9.66849 9.55887 9.67056 9.55018C9.67264 9.54148 9.67638 9.53319 9.67472 9.52367C9.67472 9.51456 9.67513 9.50544 9.67596 9.49633L9.67804 9.48266L9.67928 9.47562L9.68011 9.4719V9.45906C9.68178 9.18404 9.68178 8.90902 9.68551 8.634C9.69589 7.53392 9.71084 6.43384 9.73659 5.33417L9.75569 4.50911L9.7615 4.30285L9.76524 4.22291L9.77022 4.13635L9.78268 3.96322C9.80842 3.73293 9.84953 3.50306 9.91639 3.28022C10.0464 2.83414 10.259 2.41375 10.5388 2.04926C10.8179 1.68436 11.1617 1.37248 11.5495 1.13142C11.937 0.890782 12.3701 0.72138 12.8164 0.638957C12.9277 0.618661 13.0407 0.605822 13.1524 0.592153C13.2084 0.584284 13.2645 0.582627 13.3205 0.580556L13.4887 0.576L13.5726 0.576H13.5938L13.6071 0.576414L13.6328 0.577657L13.7362 0.581799L13.943 0.591325C14.4944 0.61659 15.0459 0.641856 15.5973 0.672091C16.7002 0.730078 17.8035 0.796762 18.9064 0.875043C19.1821 0.893681 19.4578 0.913976 19.7335 0.9351L20.5607 0.999299L20.9743 1.03285L21.1811 1.04983L21.2994 1.0606L21.4435 1.07634C21.8255 1.12355 22.198 1.2387 22.5306 1.41721C22.8632 1.59531 23.1589 1.83057 23.3976 2.1089C23.6372 2.38641 23.8208 2.70533 23.9387 3.04207C24.0574 3.37839 24.1102 3.73251 24.0973 4.0767L24.0919 4.20552C24.0915 4.22871 24.089 4.24362 24.0873 4.26143L24.0815 4.3132L24.0583 4.51947L24.0105 4.932C23.8797 6.03249 23.7377 7.13298 23.5546 8.23389Z" fill="#528AC8"/>
<path d="M18.5903 16.2406C18.4388 16.3209 18.2864 16.3971 18.1373 16.48C17.9866 16.5591 17.8383 16.6428 17.6909 16.726C17.3965 16.8937 17.1071 17.0673 16.8264 17.2504C16.5444 17.4314 16.2716 17.6235 16.0063 17.8215C15.8734 17.9201 15.7447 18.0236 15.6159 18.1255C15.4897 18.2312 15.3635 18.3351 15.2422 18.4445C14.9981 18.6603 14.7647 18.8852 14.5463 19.1204C14.3295 19.3553 14.1261 19.593 13.9463 19.8461L13.8777 19.9397C13.8553 19.9712 13.835 20.0039 13.8134 20.0362C13.7714 20.1012 13.7274 20.1637 13.6863 20.2288L13.568 20.4259C13.5476 20.4582 13.5294 20.4918 13.5115 20.5257L13.4575 20.6264L13.4035 20.7266C13.3861 20.7606 13.3707 20.7954 13.3541 20.8293C13.3217 20.8981 13.2864 20.9648 13.2561 21.0344L13.1664 21.2431C13.137 21.3127 13.1125 21.3848 13.0851 21.4552C12.9817 21.7397 12.8895 22.0276 12.8218 22.3258C12.7529 22.6232 12.6926 22.9226 12.6532 23.2304L12.637 23.3451L12.6241 23.4611L12.5984 23.6934C12.5843 23.8546 12.5672 24.0149 12.5556 24.1756C12.5457 24.3363 12.5307 24.4961 12.5249 24.6568L12.5124 24.8971C12.5083 24.977 12.507 25.0574 12.5041 25.1373C12.4846 25.778 12.4942 26.4184 12.5282 27.0699C12.5427 27.3946 12.5635 27.7239 12.5855 28.0544L12.6569 29.0576C12.6806 29.3943 12.7068 29.7348 12.7275 30.0769L12.7948 31.0664L12.8156 31.3062L12.8264 31.4168L12.8318 31.4698L12.838 31.5195C12.8542 31.6508 12.8741 31.7589 12.8974 31.8413C12.9206 31.9242 12.9451 31.9805 12.9704 32.0211C12.9779 32.0302 12.9829 32.041 12.9895 32.0497C12.997 32.0575 13.0016 32.0675 13.0095 32.0753C13.0132 32.0791 13.017 32.0832 13.0203 32.0873C13.0236 32.0915 13.0257 32.0956 13.0315 32.101C13.0415 32.111 13.0498 32.1221 13.0593 32.1325C13.137 32.2145 13.2374 32.2808 13.345 32.3226C13.453 32.364 13.5651 32.3818 13.6664 32.3731L14.6534 32.3421L15.6712 32.3147C17.0282 32.2779 18.3856 32.2514 19.7426 32.2294L20.7604 32.2157L21.2695 32.2095L21.3309 32.2087C21.3367 32.2075 21.3421 32.2066 21.3479 32.2058C21.3592 32.2041 21.3704 32.2033 21.3816 32.2037C21.3932 32.2058 21.4032 32.1996 21.414 32.1979C21.4244 32.1955 21.4351 32.1942 21.4459 32.1934C21.529 32.1743 21.6062 32.1362 21.6756 32.0832C21.7437 32.0298 21.8055 31.9623 21.8408 31.8844C21.8782 31.8078 21.9006 31.7287 21.904 31.6388C21.9048 31.6334 21.9056 31.6276 21.9064 31.6222V31.5613L21.906 31.4346L21.9056 31.1807L21.9044 30.6729L21.9106 28.6421L21.928 26.6114C21.9301 26.5199 21.9276 26.4693 21.9363 26.2974C21.9401 26.225 21.9447 26.1525 21.9496 26.0804C21.955 26.0083 21.9687 25.9359 21.9791 25.8638C21.9907 25.7917 22.002 25.7196 22.0161 25.6484C22.0331 25.5776 22.0514 25.5068 22.0701 25.4363C22.1045 25.2943 22.1564 25.1576 22.2083 25.0213C22.2216 24.9874 22.2345 24.9534 22.2486 24.9199L22.2951 24.8213C22.3267 24.7554 22.3591 24.6904 22.3919 24.6254C22.4076 24.5926 22.4263 24.5612 22.445 24.5305L22.5015 24.4373C22.5397 24.3756 22.5775 24.3135 22.6186 24.2538C22.6614 24.1954 22.705 24.1375 22.7494 24.0803C22.7938 24.0231 22.8374 23.9652 22.8872 23.9126C22.9852 23.8061 23.0808 23.6976 23.1908 23.6036C23.6172 23.2142 24.1309 22.9206 24.6844 22.752C24.8239 22.7156 24.9639 22.6774 25.1059 22.6526C25.1769 22.6414 25.2483 22.6311 25.3197 22.6215L25.4269 22.6079C25.4626 22.6041 25.4983 22.6033 25.534 22.6012C25.6054 22.5975 25.6768 22.595 25.7483 22.593L25.8018 22.5917L25.8284 22.5913L25.8454 22.5917L25.909 22.593L26.1635 22.5988C26.8424 22.6128 27.5209 22.6323 28.1999 22.6509C28.8788 22.67 29.5573 22.6932 30.2362 22.716L30.7453 22.735L30.9998 22.7445L31.1269 22.7491L31.1589 22.7503L31.1746 22.7508H31.1809H31.2062C31.342 22.7582 31.4769 22.7408 31.6086 22.6907L31.6214 22.687L31.6331 22.6808L31.6567 22.6688C31.6725 22.6609 31.6891 22.6543 31.7057 22.6472C31.7203 22.6373 31.7356 22.6277 31.751 22.6186C31.7664 22.6091 31.7842 22.6025 31.7971 22.5901C31.8241 22.5664 31.8585 22.5499 31.8835 22.5225C31.8972 22.5101 31.9113 22.4985 31.9258 22.4865C31.9395 22.4741 31.9503 22.4592 31.9636 22.4459C32.0645 22.3374 32.1476 22.2069 32.1907 22.0582C32.1949 22.0392 32.1999 22.0205 32.2053 22.0019L32.214 21.9737C32.2173 21.9642 32.2169 21.9543 32.2186 21.9443C32.2211 21.9245 32.2244 21.905 32.2285 21.8851L32.2314 21.8702C32.2323 21.864 32.2339 21.8632 32.2343 21.8503L32.2377 21.7869L32.2638 21.2792L32.3195 20.2636C32.3963 18.9092 32.4831 17.5552 32.5831 16.2008C32.6334 15.5236 32.6861 14.8464 32.743 14.1692L32.7538 14.0421L32.7563 14.0102C32.7571 13.9998 32.7584 13.9878 32.7584 13.9816L32.7609 13.936L32.7675 13.8437L32.7692 13.8205L32.7679 13.7977L32.7658 13.7513C32.7646 13.7203 32.7638 13.6892 32.7634 13.6577L32.7509 13.5649C32.7459 13.5343 32.7455 13.5016 32.7372 13.4713L32.7152 13.379L32.7048 13.3322C32.7007 13.3168 32.6944 13.3019 32.6894 13.287L32.6583 13.1955C32.6496 13.1636 32.633 13.1362 32.6201 13.106L32.5802 13.0161L32.5308 12.9308C32.5134 12.9026 32.5001 12.8712 32.4789 12.8455L32.4208 12.7639C32.4108 12.7502 32.4017 12.7357 32.3913 12.7229L32.3581 12.6852C32.1841 12.4781 31.9594 12.3041 31.6995 12.1836C31.6667 12.1691 31.6331 12.1575 31.5998 12.1443C31.5662 12.1318 31.533 12.1157 31.4981 12.1062L31.3931 12.0772C31.3578 12.0672 31.3225 12.0552 31.2859 12.0511L31.1763 12.032L31.1207 12.0225L31.0571 12.0159L30.8026 11.9881C30.1237 11.9115 29.4447 11.8357 28.7654 11.7413C29.4435 11.6406 30.122 11.5586 30.8001 11.4758L31.0546 11.446L31.1182 11.4385L31.1896 11.4344L31.3345 11.4269C31.3831 11.4228 31.4313 11.4265 31.4803 11.4286L31.6268 11.4368C31.6758 11.4402 31.724 11.4501 31.7726 11.4567C31.8212 11.4646 31.8706 11.4712 31.9192 11.4812C32.307 11.5644 32.6811 11.7409 33.0046 11.9935L33.0657 12.0407C33.0856 12.0569 33.1039 12.0751 33.123 12.0921L33.2367 12.1977C33.2762 12.2321 33.3077 12.2727 33.3434 12.3108L33.4473 12.428L33.5403 12.5543C33.5702 12.5974 33.6038 12.6384 33.6291 12.6848L33.7093 12.8215C33.7221 12.8447 33.7363 12.867 33.7483 12.8906L33.7819 12.9627L33.8484 13.1085C33.8712 13.157 33.8853 13.2087 33.904 13.2588C33.9215 13.3098 33.9393 13.3603 33.9551 13.4121L33.9925 13.5691L34.0103 13.6482L34.019 13.6879L34.0244 13.7281L34.0452 13.8892L34.0548 13.9704L34.0614 14.0371L34.0734 14.1638C34.1366 14.8406 34.1955 15.517 34.252 16.1938C34.3645 17.5469 34.4638 18.9005 34.5535 20.254L34.6187 21.2692L34.6498 21.7766L34.6535 21.84C34.6544 21.8478 34.6544 21.8681 34.6544 21.8835V21.9319C34.6544 21.9965 34.654 22.0611 34.6527 22.1262C34.6515 22.1585 34.6527 22.1912 34.649 22.2235L34.6394 22.3208C34.6324 22.3859 34.6253 22.4505 34.617 22.5155C34.4609 23.5547 33.8044 24.5156 32.8634 25.0445C32.3946 25.3096 31.8585 25.472 31.3167 25.5059L31.2149 25.513L31.1734 25.5155L31.1414 25.5171L31.0144 25.5229L30.7598 25.5345L30.2507 25.5581C29.5722 25.5871 28.8937 25.6165 28.2152 25.6418C27.5367 25.6666 26.8582 25.6927 26.1797 25.7126L25.9252 25.7209L25.8616 25.723L25.8471 25.7234L25.8421 25.7246L25.8321 25.7267C25.8189 25.7296 25.8056 25.7312 25.7923 25.7325C25.7856 25.7333 25.779 25.7325 25.7723 25.7341C25.7661 25.7362 25.7599 25.7383 25.7537 25.7404C25.7412 25.7441 25.7287 25.747 25.7159 25.7491C25.7126 25.7495 25.7096 25.7499 25.7063 25.7507L25.6976 25.7549C25.6918 25.7573 25.686 25.7598 25.6797 25.7623C25.6677 25.7669 25.6557 25.7702 25.6436 25.7727C25.551 25.812 25.4671 25.8712 25.399 25.945C25.3787 25.9603 25.3683 25.9847 25.3513 26.0025C25.3417 26.0108 25.3372 26.0232 25.3309 26.0336C25.3247 26.0444 25.3177 26.0543 25.3102 26.0638C25.3044 26.0746 25.301 26.0866 25.2948 26.097C25.2919 26.1024 25.289 26.1073 25.2857 26.1127C25.2824 26.1177 25.2786 26.1227 25.2778 26.1289C25.2745 26.1405 25.2703 26.1516 25.2653 26.1624C25.2628 26.1678 25.2604 26.1732 25.2574 26.1782C25.2558 26.184 25.2554 26.1897 25.2537 26.1955C25.2487 26.2187 25.2371 26.2395 25.2371 26.2635C25.2354 26.2751 25.2325 26.2863 25.2288 26.2974C25.2284 26.3094 25.2288 26.3215 25.2276 26.3331C25.2276 26.3451 25.2226 26.3558 25.2238 26.3683C25.2251 26.3807 25.2259 26.3927 25.2255 26.4047C25.223 26.4018 25.2259 26.5203 25.2276 26.5981L25.2641 28.6289L25.2894 30.6597L25.2932 31.1674L25.2948 31.4213L25.2956 31.5481L25.2961 31.6143L25.2927 31.7245C25.2795 32.3114 25.1316 32.9037 24.8609 33.4301C24.5926 33.9586 24.1994 34.4172 23.7289 34.7733C23.2585 35.1291 22.7054 35.3843 22.1228 35.499C22.0497 35.5114 21.9766 35.5234 21.9035 35.5342C21.8305 35.5442 21.757 35.5574 21.6839 35.5603C21.6104 35.5653 21.5369 35.569 21.4634 35.5719L21.3533 35.576H21.2873L20.7782 35.5748L19.7601 35.5702C18.4026 35.5607 17.0452 35.547 15.6878 35.5226L14.6696 35.5048L13.6207 35.4804C13.3321 35.4717 13.0464 35.4303 12.7715 35.3578C12.4962 35.2853 12.2317 35.1809 11.9822 35.0504C11.4835 34.7895 11.0429 34.42 10.7032 33.9678C10.6613 33.911 10.621 33.8526 10.5811 33.7946C10.5413 33.7366 10.5027 33.67 10.4649 33.6074C10.4271 33.5436 10.3943 33.4774 10.3602 33.4115C10.3274 33.3456 10.2988 33.2781 10.2693 33.2115C10.1564 32.9422 10.0853 32.6718 10.0413 32.4233C9.99731 32.1739 9.97863 31.9449 9.96949 31.739L9.96617 31.662L9.96409 31.5883C9.96243 31.5381 9.9616 31.4922 9.96119 31.4454L9.96036 31.1778L9.97614 30.1374L9.99814 29.1263C10.011 28.4479 10.0314 27.7562 10.0716 27.0529C10.0924 26.7021 10.1219 26.3476 10.1559 25.9934C10.1759 25.8157 10.1925 25.6389 10.2174 25.4612L10.2527 25.1953C10.2647 25.1067 10.2793 25.0184 10.2926 24.9298C10.3449 24.5761 10.4117 24.2244 10.4844 23.8757C10.5205 23.7013 10.562 23.5282 10.6007 23.3546C10.6214 23.2668 10.6451 23.1765 10.6675 23.0879L10.702 22.9545L10.7402 22.8212C10.839 22.4662 10.9594 22.1125 11.0994 21.7654C11.2372 21.4183 11.4017 21.0779 11.586 20.7498C11.7692 20.421 11.9784 20.1058 12.2085 19.8092L12.2948 19.6982C12.3231 19.6609 12.3526 19.6245 12.3837 19.5893L12.5664 19.3768C12.6287 19.3076 12.6935 19.2405 12.7574 19.173C12.7898 19.1395 12.821 19.1051 12.8542 19.0728L12.9547 18.9767C13.0224 18.9133 13.0867 18.8471 13.1569 18.7874L13.3649 18.6064C13.4339 18.5464 13.5082 18.4921 13.5792 18.4349C13.6506 18.3782 13.7224 18.3219 13.7959 18.2705C14.085 18.0555 14.3868 17.8629 14.6933 17.6836C15.0001 17.5047 15.3132 17.3411 15.6326 17.1953C15.9515 17.0482 16.2737 16.914 16.6009 16.7972C17.2532 16.5591 17.918 16.3735 18.5903 16.2406Z" fill="#528AC8"/>
<path d="M9.79517 20.5104C9.75572 20.3998 9.71752 20.2884 9.68264 20.1758C9.64734 20.0631 9.61661 19.9492 9.58464 19.8349C9.56928 19.7777 9.55516 19.7202 9.54146 19.6622C9.52734 19.6046 9.51405 19.5466 9.50201 19.4882L9.46505 19.313L9.43266 19.1366C9.35003 18.6644 9.31432 18.1777 9.32636 17.6815C9.33757 17.4338 9.35377 17.1828 9.39488 16.9323C9.41149 16.8064 9.43765 16.6809 9.46339 16.5549C9.47502 16.4916 9.49329 16.4299 9.50865 16.3669C9.52526 16.3044 9.53979 16.241 9.55848 16.1784C9.70548 15.6789 9.92597 15.1848 10.2233 14.728L10.3404 14.5602C10.3798 14.5043 10.4184 14.4476 10.4625 14.395C10.5484 14.2885 10.6319 14.1783 10.7261 14.0789L10.8661 13.9269C10.9138 13.8772 10.9641 13.8313 11.0135 13.7828C11.0633 13.7356 11.1127 13.6867 11.1638 13.6407L11.3208 13.5074C11.7439 13.1553 12.211 12.8633 12.696 12.6297C12.7567 12.6003 12.8173 12.5692 12.8783 12.5419L13.0623 12.4628L13.2475 12.3853C13.3089 12.3605 13.3696 12.3402 13.4306 12.3174C13.5527 12.2739 13.6748 12.2263 13.7985 12.1873L13.9837 12.1265C14.0452 12.1058 14.1099 12.0896 14.1726 12.071L14.3632 12.0175L14.5526 11.9703C14.6797 11.9376 14.8042 11.9111 14.93 11.8833C15.1809 11.8295 15.4283 11.7872 15.6737 11.7467C16.6521 11.5917 17.5797 11.518 18.4177 11.3942C18.5211 11.378 18.6253 11.3623 18.7258 11.3445L19.0169 11.2869C19.0654 11.277 19.114 11.2708 19.1622 11.2583L19.3067 11.2239C19.4026 11.1999 19.4994 11.1809 19.5945 11.1539C19.7846 11.098 19.9756 11.0487 20.1638 10.9837L20.3054 10.9382L20.3759 10.915L20.4461 10.8889L20.726 10.7849C22.2134 10.2059 23.6132 9.30461 24.9311 8.23021L24.9515 8.21364C25.6711 7.62715 26.7312 7.7336 27.3196 8.45138C27.531 8.70942 27.6522 9.00929 27.6879 9.31745L27.7008 9.42638L27.7112 9.52123L27.729 9.70471C27.7403 9.82565 27.7502 9.94535 27.7594 10.0646C27.7776 10.3028 27.7901 10.5393 27.7992 10.7758C27.8171 11.2484 27.8237 11.7206 27.8113 12.1936C27.8005 12.6666 27.7764 13.14 27.7328 13.6146C27.712 13.852 27.6867 14.0893 27.6572 14.327C27.6273 14.5644 27.5908 14.8025 27.5526 15.0403C27.3948 15.9912 27.1552 16.9455 26.7943 17.8841C26.6083 18.3517 26.3994 18.8172 26.1391 19.267C25.8841 19.7181 25.5818 20.1551 25.2322 20.5622C25.0582 20.7664 24.8676 20.9598 24.6691 21.145C24.5661 21.2352 24.4669 21.3272 24.3589 21.4117C24.3054 21.4544 24.2535 21.4983 24.1982 21.5388L24.0321 21.6598L23.9902 21.69L23.9445 21.7207L23.8528 21.782C23.7921 21.8221 23.7286 21.8656 23.675 21.8926L23.3404 22.0756C23.2282 22.139 23.1186 22.1879 23.0086 22.2409C22.8985 22.2927 22.7893 22.3469 22.6789 22.3962C21.7907 22.7868 20.8709 23.0697 19.9404 23.247C19.009 23.4201 18.0651 23.483 17.1379 23.435C16.2111 23.384 15.2984 23.2238 14.443 22.9268C15.3457 22.8555 16.2161 22.7197 17.054 22.5085C17.8916 22.2993 18.6967 22.0214 19.4607 21.6805C20.2235 21.3359 20.9465 20.9308 21.6129 20.4727C21.6964 20.4156 21.7766 20.3543 21.8584 20.2959C21.9389 20.2366 22.0236 20.1782 22.095 20.1178L22.3189 19.9409C22.3604 19.9107 22.3832 19.8846 22.4106 19.8577L22.4509 19.8179L22.4713 19.7984L22.4933 19.7752C22.6128 19.6539 22.7254 19.5251 22.8329 19.3917C22.9376 19.2546 23.0376 19.1134 23.1315 18.9655C23.5031 18.3707 23.7797 17.6799 23.9777 16.9414C24.1779 16.2021 24.3037 15.4176 24.3814 14.6174C24.4001 14.4169 24.4171 14.216 24.4287 14.0131C24.442 13.811 24.4536 13.6076 24.4603 13.4038C24.4681 13.2 24.4715 12.9954 24.474 12.7904C24.4769 12.5854 24.4773 12.3804 24.474 12.1745C24.4665 11.7632 24.4544 11.3511 24.4291 10.9411C24.4162 10.736 24.4009 10.5314 24.3851 10.3289C24.3768 10.2278 24.3677 10.1272 24.3577 10.0282L24.3423 9.88198L24.3274 9.75607L27.0842 10.8429C26.3164 11.4704 25.4996 12.0594 24.6151 12.5692C24.3976 12.7009 24.1679 12.8169 23.9425 12.9383C23.8283 12.9971 23.7116 13.0526 23.5966 13.1097L23.423 13.1946L23.2461 13.2746L22.8902 13.4299L22.5273 13.5732C22.4667 13.5964 22.4069 13.6217 22.3454 13.6432L22.1607 13.7082C22.0369 13.7505 21.9152 13.796 21.7894 13.8337L21.4128 13.9456L21.3185 13.9733L21.223 13.9978L21.032 14.0458C20.9041 14.0764 20.7783 14.1129 20.6483 14.1365L20.2609 14.2131C20.1318 14.238 20.0001 14.2545 19.8702 14.2753L19.6746 14.3047C19.6098 14.315 19.5434 14.3196 19.4778 14.3274L19.0841 14.3656C18.9558 14.3751 18.8304 14.3821 18.7046 14.3896C17.7064 14.4376 16.7883 14.4024 15.9299 14.4211C15.8241 14.4244 15.7165 14.426 15.6119 14.4306C15.5085 14.436 15.4013 14.4389 15.3 14.4463C15.1975 14.4525 15.0941 14.4579 14.9944 14.4683L14.8433 14.4815L14.6954 14.4993C14.597 14.5097 14.497 14.5258 14.3969 14.5408C14.296 14.5544 14.198 14.5755 14.0975 14.5925C14.0481 14.6021 13.9966 14.6095 13.9484 14.6203L13.806 14.653L13.6627 14.6845C13.6154 14.6957 13.5697 14.7102 13.5232 14.7226C12.7762 14.9251 12.0989 15.2627 11.5375 15.7833L11.4354 15.8844C11.4017 15.9188 11.3652 15.9511 11.3345 15.9879C11.2709 16.0604 11.2033 16.1312 11.1439 16.2095L11.0513 16.3251L10.9649 16.4468L10.9213 16.5081C10.9072 16.5288 10.8943 16.5504 10.8806 16.5715L10.7984 16.6995C10.587 17.047 10.4139 17.4338 10.2723 17.8439C9.99531 18.6656 9.85829 19.5748 9.79517 20.5104Z" fill="#7CC7B9"/>
</svg>
