<svg width="50" height="50" viewBox="0 0 50 50" fill="none" xmlns="http://www.w3.org/2000/svg">
<path d="M14.7731 28.2222H16.5169V36.8456H18.189V28.2222H19.9328V26.7651H14.7731V28.2222ZM23.5876 35.0541C23.3009 35.3885 22.3215 36.0574 22.3215 35.1019V29.3927H20.8405V35.6274C20.8405 37.5145 22.7276 37.0129 23.6115 36.0335V36.8456H25.0925V29.3927H23.6115V35.0541H23.5876ZM29.1056 29.345C28.2457 29.345 27.6962 29.9899 27.6962 29.9899V26.7412H26.1913V36.8456H27.6962V36.2723C27.6962 36.2723 28.1979 36.9412 29.1056 36.9412C29.8939 36.9412 30.4911 36.2485 30.4911 35.293V31.1604C30.4911 30.0377 29.9656 29.345 29.1056 29.345ZM28.9384 35.1019C28.9384 35.6513 28.5562 35.914 28.0546 35.699C27.9191 35.6357 27.7974 35.5464 27.6962 35.4363V30.8021C27.7918 30.7065 27.9112 30.6349 28.0068 30.5632C28.5323 30.3005 28.9384 30.7065 28.9384 31.256V35.1019ZM34.4564 34.7197C34.4564 35.293 34.1459 35.6752 33.7876 35.699C33.4054 35.7229 33.0232 35.4124 33.0232 34.7197V33.3103H35.8658V31.3993C35.8731 31.1083 35.8219 30.8188 35.7152 30.548C35.6085 30.2772 35.4485 30.0305 35.2447 29.8227C34.8338 29.4479 34.2959 29.243 33.7398 29.2494C33.2143 29.2494 32.6649 29.4166 32.2349 29.751C31.781 30.1094 31.4944 30.6588 31.4944 31.3993V34.7435C31.4944 35.4124 31.7094 35.9379 32.0438 36.3201C32.4499 36.7501 32.9993 36.989 33.5726 37.0129C34.2653 37.0367 35.0058 36.7501 35.4358 36.1529C35.6986 35.7946 35.8658 35.3168 35.8658 34.7435V34.3613H34.4564V34.7197ZM33.0232 31.3993C33.0232 30.9932 33.262 30.5154 33.7159 30.5154C34.1698 30.5154 34.4564 30.9454 34.4564 31.3993V32.1637H33.0232V31.3993Z" fill="white"/>
<path d="M25.4988 4C22.6754 4.00016 19.8796 4.55643 17.2712 5.63705C14.6628 6.71767 12.2927 8.30148 10.2964 10.298C8.30001 12.2946 6.71646 14.6648 5.63613 17.2734C4.5558 19.882 3.99984 22.6778 4 25.5012C4.00016 28.3246 4.55643 31.1204 5.63705 33.7288C6.71767 36.3372 8.30148 38.7073 10.298 40.7036C12.2946 42.7 14.6649 44.2835 17.2734 45.3639C19.882 46.4442 22.6778 47.0002 25.5012 47C31.2034 46.9997 36.6718 44.7342 40.7036 40.702C44.7355 36.6697 47.0003 31.201 47 25.4988C46.9997 19.7967 44.7342 14.3282 40.702 10.2964C36.6697 6.26455 31.201 3.99968 25.4988 4ZM29.273 12.0501H31.184V18.452C31.184 18.8581 31.3751 18.8581 31.4468 18.8581C31.7335 18.8581 32.1634 18.5475 32.3784 18.3325V12.0262H34.2894V20.4824H32.3784V19.7419C32.1157 19.9808 31.8529 20.1719 31.5901 20.3152C31.2318 20.5063 30.8974 20.578 30.563 20.578C30.3799 20.5867 30.1971 20.5549 30.0278 20.4847C29.8584 20.4145 29.7068 20.3076 29.5836 20.1719C29.3686 19.9091 29.273 19.503 29.273 19.0014V12.0501ZM23.1817 14.2717C23.1817 12.9578 24.2567 11.8829 25.5705 11.8829C26.8843 11.8829 27.9592 12.9578 27.9592 14.2717V18.3325C27.9592 19.6464 26.8843 20.7213 25.5705 20.7213C24.2567 20.7213 23.1817 19.6464 23.1817 18.3325V14.2717ZM18.2131 9.13583L19.3597 13.34L20.5302 9.13583H22.704L20.4585 15.7766V20.4824H18.3325V15.7766L16.0393 9.13583H18.2131ZM37.0843 39.0908C35.866 40.2852 25.5466 40.3091 25.5466 40.3091C25.5466 40.3091 15.251 40.2852 14.0089 39.0908C12.7906 37.8965 12.7906 31.9485 12.7906 31.9007C12.7906 31.8768 12.7906 25.9288 14.0089 24.7105C15.2272 23.5161 25.5466 23.4923 25.5466 23.4923C25.5466 23.4923 35.8421 23.5161 37.0843 24.7105C38.3025 25.9049 38.3264 31.8529 38.3264 31.9007C38.3264 31.9007 38.3264 37.8726 37.0843 39.0908Z" fill="white"/>
<path d="M25.5225 19.1681C25.9286 19.1681 26.1197 18.9292 26.1436 18.547V14.0084C26.1436 13.6978 25.8331 13.4351 25.5464 13.4351C25.2598 13.4351 24.9492 13.6739 24.9492 14.0084V18.547C24.9492 18.9053 25.1164 19.1442 25.5225 19.1681Z" fill="white"/>
</svg>
