<svg width="14" height="14" viewBox="0 0 14 14" fill="none" xmlns="http://www.w3.org/2000/svg">
<path d="M12.0108 12.8333C12.0108 10.5758 9.76497 8.75 6.99997 8.75C4.23497 8.75 1.98914 10.5758 1.98914 12.8333M6.99997 7C7.77352 7 8.51538 6.69271 9.06236 6.14573C9.60934 5.59875 9.91664 4.85688 9.91664 4.08333C9.91664 3.30979 9.60934 2.56792 9.06236 2.02094C8.51538 1.47396 7.77352 1.16667 6.99997 1.16667C6.22642 1.16667 5.48456 1.47396 4.93757 2.02094C4.39059 2.56792 4.0833 3.30979 4.0833 4.08333C4.0833 4.85688 4.39059 5.59875 4.93757 6.14573C5.48456 6.69271 6.22642 7 6.99997 7Z" stroke="black" stroke-linecap="round" stroke-linejoin="round"/>
</svg>
