<svg width="13" height="13" viewBox="0 0 13 13" fill="none" xmlns="http://www.w3.org/2000/svg">
<path d="M12.1667 12.1667L11 11M6.04167 11.5833C6.76941 11.5833 7.49003 11.44 8.16237 11.1615C8.83472 10.883 9.44563 10.4748 9.96022 9.96022C10.4748 9.44563 10.883 8.83472 11.1615 8.16237C11.44 7.49003 11.5833 6.76941 11.5833 6.04167C11.5833 5.31392 11.44 4.59331 11.1615 3.92096C10.883 3.24862 10.4748 2.63771 9.96022 2.12312C9.44563 1.60853 8.83472 1.20033 8.16237 0.921834C7.49003 0.643339 6.76941 0.5 6.04167 0.5C4.57193 0.5 3.16238 1.08385 2.12312 2.12312C1.08385 3.16238 0.5 4.57193 0.5 6.04167C0.5 7.51141 1.08385 8.92095 2.12312 9.96022C3.16238 10.9995 4.57193 11.5833 6.04167 11.5833Z" stroke="black" stroke-linecap="round" stroke-linejoin="round"/>
</svg>
